<svg width="88" height="56" viewBox="0 0 88 56" fill="none" xmlns="http://www.w3.org/2000/svg">
<g id="Group">
<path id="Vector" d="M3.17007 22.4688H2.3254C1.04099 22.4688 0 23.5665 0 24.9201C0 26.2738 1.04099 27.3715 2.3254 27.3715H3.17007C4.45383 27.3715 5.49552 26.2738 5.49552 24.9201C5.49552 23.5665 4.45416 22.4688 3.17007 22.4688Z" fill="#111111"/>
<path id="Vector_2" d="M22.5084 27.3715C23.7925 27.3715 24.8342 26.2738 24.8342 24.9201C24.8342 23.5665 23.7925 22.4688 22.5084 22.4688H9.60324C8.31948 22.4688 7.27783 23.5665 7.27783 24.9201C7.27783 26.2738 8.31948 27.3715 9.60324 27.3715H22.5084Z" fill="#111111"/>
<path id="Vector_3" d="M11.0378 18.2714H11.8729C13.1576 18.2714 14.1983 17.1737 14.1983 15.8204C14.1983 14.466 13.1576 13.3687 11.8729 13.3687H11.0378C9.75339 13.3687 8.7124 14.4664 8.7124 15.8204C8.7124 17.1737 9.75339 18.2714 11.0378 18.2714Z" fill="#111111"/>
<path id="Vector_4" d="M25.0518 13.3687H18.3067C17.022 13.3687 15.981 14.4664 15.981 15.8204C15.981 17.174 17.022 18.2714 18.3067 18.2714H25.0518C26.3362 18.2714 27.3772 17.1737 27.3772 15.8204C27.3772 14.466 26.3362 13.3687 25.0518 13.3687Z" fill="#111111"/>
<path id="Vector_5" d="M11.8832 31.5698H11.0378C9.75339 31.5698 8.7124 32.6676 8.7124 34.0216C8.7124 35.3752 9.75339 36.4726 11.0378 36.4726H11.8832C13.1676 36.4726 14.2086 35.3749 14.2086 34.0216C14.2086 32.6676 13.1676 31.5698 11.8832 31.5698Z" fill="#111111"/>
<path id="Vector_6" d="M25.0518 31.5698H18.3167C17.0322 31.5698 15.9912 32.6676 15.9912 34.0216C15.9912 35.3752 17.0322 36.4726 18.3167 36.4726H25.0518C26.3362 36.4726 27.3772 35.3749 27.3772 34.0216C27.3772 32.6676 26.3362 31.5698 25.0518 31.5698Z" fill="#111111"/>
<path id="Vector_7" d="M86.9596 27.0353L75.7985 14.1665C75.3584 13.6582 74.7349 13.3687 74.0819 13.3687H60.8862V2.95139C60.8862 1.59739 59.8452 0.5 58.5608 0.5H16.1823C14.8979 0.5 13.8569 1.59774 13.8569 2.95139C13.8569 4.30504 14.8979 5.40278 16.1823 5.40278H56.235V44.439H36.1792C35.1747 40.8819 32.0464 38.2801 28.3506 38.2801C24.6549 38.2801 21.526 40.8819 20.5224 44.439H16.1823C14.8979 44.439 13.8569 45.5364 13.8569 46.8901C13.8569 48.2444 14.8979 49.3415 16.1823 49.3415H20.5224C21.526 52.8979 24.6549 55.5 28.3506 55.5C32.0464 55.5 35.1747 52.8979 36.1792 49.3415H58.5605H64.0729C65.0774 52.8979 68.2064 55.5 71.9014 55.5C75.5978 55.5 78.7261 52.8979 79.7303 49.3415H85.2431C86.5275 49.3415 87.5685 48.2441 87.5685 46.8901V28.6892C87.5691 28.0778 87.3512 27.4873 86.9596 27.0353ZM28.3506 50.5979C26.4116 50.5979 24.834 48.9349 24.834 46.8904C24.834 44.8463 26.4116 43.1829 28.3506 43.1829C30.2897 43.1829 31.8673 44.8467 31.8673 46.8904C31.8676 48.9349 30.2897 50.5979 28.3506 50.5979ZM71.9018 50.5979C69.9627 50.5979 68.3851 48.9349 68.3851 46.8904C68.3851 44.8463 69.963 43.1829 71.9018 43.1829C73.8415 43.1829 75.4191 44.8467 75.4191 46.8904C75.4194 48.9349 73.8415 50.5979 71.9018 50.5979ZM79.7309 44.4394C78.7268 40.8822 75.5985 38.2805 71.9021 38.2805C68.2067 38.2805 65.0781 40.8822 64.0736 44.4394H60.8865V18.2719H73.0578L79.9668 26.2382H66.7946C65.5108 26.2382 64.4698 27.3359 64.4698 28.6896C64.4698 30.0439 65.5108 31.141 66.7946 31.141H82.9183V44.439H79.7309V44.4394Z" fill="#111111"/>
</g>
</svg>
