<svg width="66" height="56" viewBox="0 0 66 56" fill="none" xmlns="http://www.w3.org/2000/svg">
<path d="M18.8826 36.4887H30.054C31.018 36.4887 31.7993 35.6963 31.7993 34.7191C31.7993 33.7413 31.0178 32.9484 30.054 32.9484H23.0958L29.6251 26.3265C31.027 24.9047 31.7993 23.0143 31.7993 21.0033C31.7993 18.9926 31.027 17.1023 29.6251 15.6805C28.2235 14.2584 26.3595 13.4756 24.3769 13.4756C22.3942 13.4756 20.5304 14.2587 19.1288 15.6805C18.447 16.3714 18.447 17.4925 19.1288 18.184C19.8105 18.8749 20.9154 18.875 21.5972 18.1835C22.3394 17.4304 23.3271 17.0159 24.3769 17.0159C25.4271 17.0159 26.4145 17.4304 27.157 18.184C27.8997 18.9365 28.3084 19.938 28.3084 21.0033C28.3084 22.0684 27.8997 23.0699 27.157 23.8229L17.648 33.4674C17.1487 33.9733 16.9996 34.735 17.2694 35.3966C17.54 36.0578 18.1765 36.4887 18.8826 36.4887Z" fill="#111111"/>
<path d="M46.841 32.9491H45.3577V29.3934C45.3577 28.4162 44.5764 27.6233 43.6124 27.6233C42.6484 27.6233 41.8673 28.4162 41.8673 29.3934V32.9491H37.6877L45.2047 15.9713C45.5994 15.0796 45.2066 14.0317 44.3273 13.6313C43.4479 13.231 42.4149 13.6291 42.0202 14.5207L33.3983 33.9942C33.1559 34.5418 33.2034 35.177 33.525 35.6814C33.8468 36.1852 34.3982 36.4892 34.9903 36.4892H41.8671V40.0454C41.8671 41.0227 42.6481 41.8158 43.6122 41.8158C44.5764 41.8158 45.3575 41.0227 45.3575 40.0454V36.4892H46.8407C47.8047 36.4892 48.5863 35.6968 48.5863 34.7195C48.5865 33.7418 47.8047 32.9491 46.841 32.9491Z" fill="#333333"/>
<path d="M65.4903 26.7611C65.1787 26.2136 64.6022 25.8758 63.9789 25.8758H59.8533C59.4377 19.2147 56.6833 13.0099 51.9879 8.24824C46.8791 3.06678 40.0868 0.213379 32.862 0.213379C31.898 0.213379 31.1167 1.0058 31.1167 1.98328C31.1167 2.96125 31.8983 3.75342 32.862 3.75342C45.2647 3.75342 55.4589 13.5249 56.355 25.8761H52.3513C51.7276 25.8761 51.1516 26.2138 50.84 26.7614C50.5278 27.3092 50.5278 27.984 50.84 28.5318L56.6534 38.7447C56.9655 39.2925 57.5415 39.6296 58.1648 39.6296C58.7885 39.6296 59.3647 39.2925 59.6764 38.7447L65.4901 28.5318C65.8017 27.9837 65.8017 27.3089 65.4903 26.7611ZM58.1648 34.3186L55.3743 29.4161H60.956L58.1648 34.3186Z" fill="#111111"/>
<path d="M27.4162 3.88649C27.8752 3.88649 28.3255 3.68951 28.6503 3.34762C28.9749 3.006 29.1618 2.53206 29.1618 2.04922C29.1618 1.56481 28.9751 1.09193 28.6503 0.750304C28.3257 0.407368 27.8752 0.211914 27.4162 0.211914C26.9562 0.211914 26.507 0.407368 26.1816 0.750304C25.8571 1.09193 25.6709 1.56586 25.6709 2.04922C25.6709 2.53206 25.8571 3.006 26.1816 3.34762C26.507 3.68951 26.9562 3.88649 27.4162 3.88649Z" fill="#111111"/>
<path d="M22.1806 3.88649C22.6394 3.88649 23.0899 3.68951 23.4145 3.34762C23.7403 3.006 23.9259 2.53206 23.9259 2.04922C23.9259 1.56481 23.7403 1.09193 23.4145 0.750304C23.0899 0.407368 22.6394 0.211914 22.1806 0.211914C21.7217 0.211914 21.2714 0.407368 20.9466 0.750304C20.6207 1.09193 20.4351 1.56481 20.4351 2.04922C20.4351 2.53206 20.6207 3.006 20.9466 3.34762C21.2711 3.68951 21.7217 3.88649 22.1806 3.88649Z" fill="#111111"/>
<path d="M32.8623 51.538C26.5694 51.538 20.6539 49.0526 16.2043 44.5402C12.1688 40.4473 9.77776 35.1305 9.36806 29.4154H13.3727C13.3732 29.4154 13.3737 29.4154 13.3742 29.4154C14.3382 29.4154 15.1195 28.6229 15.1195 27.6452C15.1195 27.2948 15.019 26.9677 14.8455 26.693L9.07013 16.5474C8.75875 15.9999 8.18228 15.6626 7.55877 15.6626C6.93526 15.6626 6.35904 15.9999 6.04741 16.5474L0.233722 26.7604C-0.0779074 27.3082 -0.0779074 27.983 0.233722 28.5308C0.545352 29.0786 1.12157 29.4156 1.74508 29.4156H5.87044C6.28661 36.0774 9.04076 42.2815 13.7359 47.0434C18.8447 52.2254 25.637 55.0785 32.862 55.0785C33.826 55.0785 34.6071 54.2861 34.6071 53.3081C34.6073 52.3309 33.8263 51.538 32.8623 51.538ZM7.55901 20.9728L10.3498 25.875H4.76829L7.55901 20.9728Z" fill="#111111"/>
<path d="M38.3078 51.5376C37.8488 51.5376 37.3986 51.7346 37.0737 52.0757C36.7492 52.4176 36.5625 52.8915 36.5625 53.3746C36.5625 53.8588 36.7492 54.3319 37.0737 54.6738C37.3983 55.0162 37.8488 55.2119 38.3078 55.2119C38.7678 55.2119 39.2171 55.0162 39.5426 54.6738C39.8672 54.3319 40.0529 53.8582 40.0529 53.3746C40.0529 52.8915 39.8672 52.4176 39.5426 52.0757C39.2171 51.7346 38.7678 51.5376 38.3078 51.5376Z" fill="#111111"/>
<path d="M43.5441 51.5376C43.0842 51.5376 42.6347 51.7346 42.3101 52.0757C41.9845 52.4176 41.7988 52.8915 41.7988 53.3746C41.7988 53.8582 41.9848 54.3319 42.3101 54.6738C42.6347 55.0162 43.0842 55.2119 43.5441 55.2119C44.0031 55.2119 44.4537 55.0162 44.778 54.6738C45.1026 54.3319 45.2897 53.8582 45.2897 53.3746C45.2897 52.8915 45.1028 52.4176 44.778 52.0757C44.4537 51.7346 44.0029 51.5376 43.5441 51.5376Z" fill="#111111"/>
</svg>
